<svg width="538" height="120" viewBox="0 0 538 120" fill="none" xmlns="http://www.w3.org/2000/svg">
<path d="M262.141 68.2951C262.148 66.9819 262.166 65.6687 262.166 64.3554C262.166 51.8394 262.173 39.3199 262.145 26.8039C262.145 26.3206 262.558 25.6798 261.84 25.3156C259.375 25.9914 256.907 26.6638 254.449 27.3362C253.297 26.5518 252.11 25.9634 250.832 25.6483C244.551 24.1039 237.814 26.7444 234.127 32.0954C231.743 35.5588 230.748 39.432 230.668 43.5678C230.605 46.7441 231.039 49.8468 232.523 52.7149C234.351 56.2519 237.17 58.5247 241.182 58.9204C245.559 59.3546 249.078 57.6036 251.809 54.1997C252.04 53.9126 252.127 53.4573 252.667 53.4678C252.719 53.6359 252.814 53.7865 252.814 53.9406C252.821 58.3496 252.807 62.762 252.821 67.171C252.824 68.4912 252.236 69.4753 251.231 70.2492C250.66 70.687 250.058 71.0862 249.323 71.6045H265.516C264.168 70.5154 262.624 69.9306 262.141 68.2916V68.2951ZM252.751 52.0741C250.31 54.7881 245.359 54.6165 242.905 50.9429C241.868 49.3951 241.21 47.6966 240.881 45.8896C240.002 41.0359 240.076 36.2347 241.931 31.5841C242.597 29.9171 243.556 28.4323 245.062 27.3922C247.667 25.5922 250.548 26.4047 251.872 29.2938C252.4 30.4459 252.74 31.6576 252.744 32.9323C252.758 39.2849 252.751 45.6339 252.751 52.0776V52.0741Z" fill="#1D1D1B"/>
<path d="M216.841 54.4834C215.22 56.3009 213.238 57.236 210.798 57.2149C208.56 57.1974 206.327 57.2219 204.089 57.2044C203.652 57.2044 203.172 57.3585 202.773 57.0118V34.8059C203 34.7148 203.102 34.6413 203.207 34.6378C204.065 34.6203 204.926 34.6063 205.784 34.6063C211.071 34.6063 211.298 34.7043 214.926 38.497C215.658 39.2639 216.407 40.0168 217.247 40.8783C217.622 38.7036 217.538 28.6424 217.184 27.4062C216.918 27.4097 216.817 27.6339 216.663 27.7915C215.371 29.0942 214.145 30.453 212.801 31.7067C211.551 32.8728 210.091 33.3981 208.445 33.4471C206.614 33.4997 204.783 33.4576 202.755 33.4576V13.542C205.938 13.542 209.023 13.5525 212.107 13.5385C213.368 13.5315 214.446 14.0007 215.448 14.7116C216.298 15.3105 216.995 16.0704 217.674 16.8443C219.604 19.0471 221.246 21.4634 222.961 23.8307C223.298 24.2965 223.515 24.9304 224.257 25.13C224.071 20.6475 224.019 16.256 223.641 11.756C222.331 11.8821 221.113 12.1062 219.866 12.1027C209.663 12.0677 199.457 12.0782 189.251 12.0817C188.858 12.0817 188.452 11.9731 187.959 12.2953C188.662 12.754 189.317 13.1848 189.979 13.6015C191.779 14.7362 192.682 16.3365 192.552 18.4903C192.538 18.7179 192.552 18.949 192.552 19.1766C192.552 29.9557 192.552 40.7382 192.552 51.5172C192.552 52.032 192.524 52.5468 192.517 53.0651C192.493 54.704 191.677 55.8632 190.357 56.7527C189.566 57.2885 188.708 57.7367 188.025 58.4511C188.291 58.6963 188.575 58.6122 188.834 58.6122C199.439 58.6157 210.045 58.6227 220.651 58.5982C221.837 58.5982 223.021 58.5107 224.334 58.9939C224.59 53.8846 224.929 48.9363 224.901 43.946C224.078 44.839 223.431 45.767 222.769 46.688C220.868 49.339 219.033 52.039 216.852 54.4834H216.841Z" fill="#1D1D1B"/>
<path d="M302.424 56.5565C300.257 55.59 299.592 53.9405 299.623 51.5872C299.739 43.3891 299.672 35.1875 299.658 26.9894C299.658 26.4361 299.823 25.8513 299.48 25.2455C295.338 25.8303 291.182 26.4186 287.029 27.0069C287.05 27.1505 287.036 27.2276 287.067 27.2591C287.229 27.4202 287.376 27.6128 287.572 27.7108C289.862 28.877 290.481 30.7681 290.422 33.2544C290.289 38.9276 290.383 44.6078 290.376 50.2845C290.376 50.7923 290.471 51.3176 290.271 51.8008C288.219 53.4503 286.668 53.9861 284.273 53.881C282.215 53.7899 281.031 52.8689 280.341 50.8938C279.837 49.4545 279.851 47.9627 279.848 46.4743C279.834 39.9957 279.841 33.5136 279.841 27.035V25.2209C275.531 25.8303 271.382 26.4186 267.222 27.0104C267.309 27.4867 267.663 27.6338 267.95 27.7809C270.132 28.9015 270.772 30.7891 270.646 33.0793C270.625 33.4786 270.646 33.8813 270.646 34.284C270.646 39.3864 270.65 44.4922 270.646 49.5946C270.646 51.216 270.856 52.8059 271.501 54.2977C272.817 57.3374 275.159 58.8713 278.468 58.9518C282.841 59.0569 286.297 57.2009 289.14 54.0001C289.452 53.6499 289.616 53.044 290.408 53.1561V59.0079C294.781 58.409 298.898 57.8452 303.069 57.2744C302.949 57.0398 302.918 56.9172 302.844 56.8472C302.722 56.7316 302.582 56.6195 302.428 56.5495L302.424 56.5565Z" fill="#1D1D1B"/>
<path d="M335.081 52.3297C334.829 51.4963 334.759 50.6803 334.762 49.8328C334.78 44.3908 334.794 38.9488 334.801 33.5067C334.801 32.8203 334.699 32.1479 334.514 31.4756C333.527 27.9211 330.858 26.3417 327.543 25.6588C323.737 24.8744 319.906 25.165 316.114 25.8199C313.572 26.2611 311.062 26.8985 308.653 25.3716C308.58 25.3261 308.443 25.3822 308.163 25.4032C308.184 28.9787 307.886 32.5612 308.033 36.4273C308.566 35.9406 308.884 35.7024 309.14 35.4083C310.901 33.3666 312.834 31.5001 314.896 29.7666C316.657 28.2888 318.492 26.9195 320.841 26.5098C323.096 26.1141 324.864 27.1717 325.396 29.3744C326.09 32.239 325.677 35.1421 325.719 37.8947C325.151 38.3464 324.672 38.2729 324.227 38.3429C320.151 38.9943 316.139 39.8663 312.484 41.8869C310.61 42.9235 308.965 44.2262 307.799 46.0752C305.365 49.9344 306.57 55.1313 310.421 57.5056C314.521 60.0341 321.188 59.3792 324.591 55.1208C324.899 54.7321 325.106 54.2243 325.659 54.0807C327.854 58.1045 330.067 59.3757 334.115 58.9449C336.996 58.6368 339.185 56.8648 339.958 54.1122C339.433 54.2593 338.971 54.4274 338.491 54.5185C336.59 54.8757 335.655 54.2103 335.085 52.3297H335.081ZM325.67 52.6659C323.912 54.4729 321.583 55.0543 319.451 54.1858C317.168 53.2543 316.289 51.4367 316.135 49.0729C315.876 45.1157 317.858 42.4752 321.013 40.5036C322.364 39.6561 323.877 39.1659 325.393 38.7071C325.841 39.8733 325.999 48.306 325.67 52.6659Z" fill="#1D1D1B"/>
<path d="M353.999 54.5114C354.013 51.3701 354.034 48.2289 354.037 45.0841C354.041 33.9969 354.048 22.9097 354.02 11.8225C354.02 11.2622 354.377 10.5688 353.701 10.11C353.194 9.9034 352.665 10.0365 352.178 10.117C349.706 10.5232 347.238 10.9575 344.78 11.4513C343.624 11.6824 342.388 11.5948 341.296 12.2077C341.398 12.3513 341.447 12.4528 341.527 12.5299C341.65 12.6489 341.779 12.775 341.926 12.8485C344.255 14.0217 344.804 16.0774 344.717 18.4517C344.713 18.5672 344.717 18.6793 344.717 18.7949C344.717 30.0712 344.717 41.344 344.717 52.6203C344.717 53.1351 344.724 53.6534 344.678 54.1647C344.573 55.3518 344.136 56.3289 343.11 57.0713C342.525 57.495 341.779 57.8067 341.356 58.5246H357.437C356.635 57.9398 356.026 57.5371 355.462 57.0748C354.65 56.4129 353.915 55.688 354.002 54.5044L353.999 54.5114Z" fill="#1D1D1B"/>
<path d="M424.404 25.7532C425.328 26.8878 426.119 27.8509 426.904 28.8174C428.097 30.2918 428.273 31.8711 427.53 33.6326C425.825 37.6914 424.18 41.7747 422.513 45.851C422.348 46.2502 422.222 46.6669 421.725 47.0626C420.867 45.077 420.079 43.256 419.295 41.428C417.765 37.8595 416.259 34.277 414.701 30.719C414.071 29.2797 414.292 28.075 415.381 26.9649C415.717 26.6217 416.263 26.3871 416.235 25.7007H400.976C402.457 27.5777 403.588 29.2867 404.443 31.1637C406.673 36.0525 408.928 40.9272 411.169 45.8089C412.982 49.7592 414.789 53.7094 416.585 57.6666C416.837 58.2234 417.208 58.7557 416.935 59.4526C416.035 61.7429 414.635 63.5639 412.184 64.2783C410.531 64.7616 408.826 64.9682 407.097 64.66C406.099 64.4814 405.097 64.3343 403.949 64.1487V71.6429C408.336 72.9807 411.904 71.7235 414.309 68.1269C415.045 67.0273 415.643 65.8577 416.144 64.6355C419.978 55.2817 423.843 45.942 427.614 36.5638C429.06 32.9743 430.752 29.5739 433.5 26.7863C433.763 26.5201 434.102 26.233 434.053 25.7427H424.407L424.404 25.7532Z" fill="#1D1D1B"/>
<path d="M394.369 53.7129C392.482 52.8409 391.869 51.181 391.866 49.2059C391.852 41.9849 391.824 34.7673 391.81 27.5463C391.81 27.3992 391.943 27.2486 392.083 26.9509H399.292C399.492 26.3976 399.579 26.0229 399.022 25.5431H391.841C391.705 22.5665 391.918 19.7369 391.722 16.9493C391.253 16.9213 391.102 17.0999 390.955 17.268C387.605 21.0151 383.816 24.1844 379.138 26.177C378.851 26.2996 378.697 26.5202 378.886 26.9719H382.248C382.689 27.7984 382.528 28.4393 382.531 29.0521C382.545 36.2171 382.531 43.3786 382.545 50.5436C382.552 53.4012 383.55 55.8071 385.955 57.481C388.263 59.0849 390.875 59.1935 393.525 58.8153C395.132 58.5841 396.578 57.8873 397.814 56.8122C399.092 55.6985 399.968 54.3468 400.496 52.4662C400.076 52.8024 399.905 52.9565 399.719 53.0861C398.049 54.2522 396.246 54.5814 394.373 53.7129H394.369Z" fill="#1D1D1B"/>
<path d="M376.309 58.0868C373.911 56.8786 373.221 54.9245 373.26 52.298C373.382 43.8198 373.309 35.3345 373.298 26.8528C373.298 26.352 373.442 25.8267 373.144 25.2699C368.999 25.9843 364.842 26.6987 360.494 27.4481C361.18 28.0084 361.67 28.4917 362.237 28.8489C363.529 29.6614 364.044 30.7855 364.041 32.3053C364.02 39.5824 364.048 46.8595 364.086 54.1366C364.093 55.5514 363.375 56.4864 362.332 57.2918C361.828 57.677 361.173 57.8977 360.795 58.535H376.589C376.649 58.2304 376.449 58.1603 376.313 58.0903L376.309 58.0868Z" fill="#1D1D1B"/>
<path d="M368.277 20.7174C371.351 20.7314 373.553 18.6547 373.613 15.692C373.669 12.7679 371.428 10.4706 368.484 10.4356C365.332 10.4006 363.077 12.5368 363.074 15.5625C363.074 18.5567 365.238 20.6999 368.28 20.7139L368.277 20.7174Z" fill="#1D1D1B"/>
<path d="M241.977 108.343C239.645 107.09 238.875 105.16 238.899 102.544C238.99 91.7092 238.938 80.8741 238.938 70.039C238.938 69.6363 238.948 69.2371 238.938 68.8343C238.906 67.0098 239.726 65.7001 241.242 64.709C241.928 64.2608 242.74 63.9316 243.329 63.1647H228.823C224.919 73.5445 221.039 83.8543 217.163 94.164C217.037 94.164 216.908 94.164 216.781 94.164C212.583 83.8157 208.382 73.4639 204.212 63.1892H188.179C189.033 63.823 189.678 64.2818 190.301 64.7686C193.445 67.2269 193.533 67.4126 193.529 71.4013C193.529 80.5169 193.529 89.6325 193.526 98.7481C193.526 99.55 193.438 100.352 193.452 101.15C193.477 102.369 192.983 103.357 192.241 104.278C191.05 105.752 189.72 107.093 188.4 108.445C188.113 108.739 187.643 108.946 187.696 109.478H201.04C199.751 108.165 198.673 106.999 197.524 105.906C195.521 104.008 194.8 101.714 194.825 98.9687C194.905 89.5099 194.853 80.0511 194.86 70.5888C194.86 70.0425 194.702 69.4577 195.245 68.6487C201.015 82.5515 206.684 96.2127 212.37 109.916C212.828 109.58 212.909 109.184 213.042 108.823C217.877 95.9991 222.706 83.1679 227.555 70.3507C227.842 69.5908 228.021 68.7363 228.833 67.9939V69.7484C228.833 80.8706 228.833 91.9928 228.833 103.115C228.833 103.402 228.833 103.689 228.819 103.973C228.763 105.433 228.227 106.624 226.97 107.464C226.088 108.053 225.251 108.715 224.271 109.433H243.423C242.989 108.851 242.46 108.603 241.97 108.336L241.977 108.343Z" fill="#1D1D1B"/>
<path d="M334.419 103.871C334.556 97.6275 334.458 91.3765 334.472 85.129C334.472 83.6161 334.195 82.1663 333.628 80.7796C332.42 77.8204 330.13 76.3181 326.993 76.2095C322.728 76.0624 319.427 78.041 316.685 81.1403C316.29 81.5885 316.044 82.2189 315.306 82.3624C315.166 82.0122 315.022 81.7041 314.917 81.3784C313.569 77.176 309.753 75.5756 305.618 76.3566C302.571 76.9309 300.127 78.5488 298.104 80.8461C297.694 81.3084 297.358 81.8407 296.612 82.3449V76.171C292.305 76.9204 288.174 77.6348 284.028 78.3562C284.175 78.9831 284.704 79.1792 285.114 79.4523C286.665 80.4854 287.404 81.8371 287.386 83.7667C287.32 90.8162 287.348 97.8656 287.386 104.919C287.393 106.396 286.728 107.405 285.604 108.238C285.107 108.61 284.459 108.834 284.098 109.464H299.917C299.896 109.1 299.641 109.023 299.459 108.928C297.277 107.794 296.518 106.036 296.57 103.577C296.7 97.5049 296.609 91.4255 296.616 85.3496C296.616 84.7228 296.532 84.0889 296.714 83.4936C297.204 82.7827 297.932 82.422 298.65 82.0823C302.372 80.3103 306.129 81.5185 306.181 86.5823C306.244 92.7142 306.202 98.8497 306.248 104.982C306.258 106.389 305.646 107.366 304.553 108.161C304.003 108.564 303.286 108.792 302.89 109.454H319.094C318.243 108.844 317.603 108.389 316.965 107.93C316.023 107.251 315.53 106.354 315.53 105.164C315.54 97.9427 315.537 90.7251 315.537 83.4971C316.608 82.3414 317.97 81.7426 319.434 81.4379C322.347 80.8321 324.353 82.1979 324.997 85.1185C325.081 85.5072 325.123 85.9134 325.123 86.3092C325.144 92.5566 325.137 98.8042 325.176 105.052C325.183 106.396 324.609 107.345 323.555 108.081C322.963 108.494 322.375 108.911 321.563 109.485H338.085C337.49 109.072 337.231 108.855 336.937 108.694C335.022 107.643 334.374 106.081 334.423 103.871H334.419Z" fill="#1D1D1B"/>
<path d="M514.937 105.073C514.916 106.446 514.318 107.472 513.141 108.193C512.57 108.543 512.049 108.97 511.404 109.436H527.658C527.388 109.202 527.279 109.058 527.132 108.988C524.8 107.818 524.055 105.948 524.121 103.36C524.272 97.3439 524.17 91.3241 524.17 85.3042C524.17 84.5022 524.135 83.7038 523.999 82.9088C523.05 77.3862 518.652 75.4181 514.023 76.4442C510.932 77.1271 508.484 78.8045 506.433 81.1474C506.044 81.5886 505.806 82.24 505.19 82.352C504.794 82.1034 504.836 81.7917 504.748 81.5291C503.246 76.931 499.171 75.5827 495.204 76.4092C492.151 77.0431 489.759 78.696 487.732 80.9863C487.375 81.389 487.13 81.9178 486.387 82.3135C486.184 80.1878 486.415 78.2092 486.237 76.1991C482.004 76.938 477.911 77.6559 473.776 78.3773C473.867 78.5874 473.877 78.654 473.912 78.689C474.122 78.8816 474.315 79.1127 474.556 79.2458C476.727 80.4014 477.245 82.352 477.168 84.6003C477.165 84.7159 477.168 84.8279 477.168 84.9435C477.168 91.3065 477.13 97.6696 477.193 104.033C477.214 106.05 476.612 107.598 474.819 108.62C474.493 108.806 474.094 108.96 473.891 109.482H489.955C489.577 109.202 489.416 109.047 489.227 108.953C486.965 107.797 486.226 105.924 486.268 103.441C486.37 97.5365 486.405 91.6287 486.244 85.7279C486.188 83.6162 487 82.5201 488.838 81.9038C489.273 81.7567 489.689 81.5571 490.134 81.4625C493.289 80.7937 495.575 82.4921 495.859 85.7069C495.943 86.677 496.002 87.6505 496.006 88.6205C496.02 93.6669 496.013 98.7097 496.013 103.756C496.013 104.099 495.995 104.446 496.006 104.789C496.051 106.368 495.361 107.514 494.041 108.361C493.555 108.673 492.952 108.886 492.585 109.513H508.677C508.519 109.04 508.113 108.9 507.784 108.718C505.795 107.633 505.113 105.997 505.176 103.739C505.305 99.0424 505.214 94.3392 505.214 89.6361C505.214 87.5805 505.214 85.5213 505.214 83.5077C506.299 82.4641 507.532 81.8688 508.873 81.5221C512.084 80.6886 514.482 82.366 514.797 85.6614C514.913 86.8556 514.962 88.0602 514.969 89.2614C514.986 94.0206 514.979 98.7762 514.976 103.535C514.976 104.05 514.944 104.565 514.937 105.08V105.073Z" fill="#1D1D1B"/>
<path d="M408.241 108.823C406.343 107.713 405.549 106.179 405.612 103.871C405.773 97.9705 405.657 92.0627 405.671 86.1549C405.671 85.1183 405.559 84.1098 405.381 83.0872C404.453 77.7642 400.293 75.4809 395.258 76.3284C391.68 76.9307 388.791 78.8148 386.498 81.6199C386.263 81.907 386.095 82.3518 385.434 82.1802V76.1813C381.183 76.9237 377.083 77.6381 372.85 78.3771C373.399 79.1615 374.072 79.5117 374.642 79.9599C375.595 80.7129 376.12 81.5849 376.208 82.8561C376.306 84.2884 376.33 85.7137 376.33 87.1425C376.337 92.7036 376.292 98.2647 376.355 103.826C376.379 105.955 375.801 107.632 373.844 108.69C373.55 108.848 373.06 108.953 373.13 109.464H388.886C388.84 109.334 388.84 109.264 388.802 109.236C388.669 109.128 388.539 109.009 388.389 108.932C386.155 107.766 385.374 105.934 385.427 103.43C385.546 97.6974 385.465 91.9647 385.465 86.2285C385.465 83.1327 385.56 83.0031 388.441 81.858C389.138 81.5814 389.856 81.4308 390.605 81.3572C394.754 80.944 396.277 83.581 396.312 86.5646C396.382 92.7001 396.34 98.832 396.386 104.967C396.396 106.375 395.808 107.373 394.695 108.144C394.148 108.525 393.613 108.925 392.846 109.481H409.008C408.878 109.271 408.861 109.212 408.819 109.184C408.63 109.058 408.437 108.932 408.241 108.816V108.823Z" fill="#1D1D1B"/>
<path d="M466.969 103.829C466.987 103.259 466.952 102.684 466.952 102.11C466.952 93.9679 466.952 85.8259 466.941 77.6838C466.941 77.1901 467.116 76.6543 466.741 76.185C462.596 76.7768 458.454 77.3652 454.119 77.9815C454.455 78.2967 454.588 78.4998 454.777 78.5943C457.172 79.7535 457.768 81.7216 457.712 84.257C457.585 89.9862 457.673 95.7224 457.669 101.455C457.669 101.907 457.764 102.376 457.494 102.859C455.677 104.341 453.566 104.999 451.168 104.803C449.788 104.691 448.706 104.04 448.114 102.863C447.491 101.62 446.938 100.331 446.945 98.8392C446.987 91.7862 446.966 84.7333 446.955 77.6838C446.955 77.1901 447.113 76.6613 446.794 76.2095C442.722 76.7908 438.668 77.3652 434.578 77.95C434.729 78.5628 435.205 78.7274 435.573 78.9445C437.281 79.9461 438.006 81.4484 437.94 83.385C437.926 83.8438 437.94 84.3025 437.94 84.7613C437.94 89.9792 437.95 95.1971 437.933 100.415C437.929 101.571 438.027 102.716 438.321 103.822C439.316 107.552 441.609 109.52 444.953 109.86C448.465 110.221 451.595 109.142 454.378 106.946C455.492 106.067 456.325 104.912 457.575 103.808C457.824 105.955 457.48 107.888 457.81 109.937C462.022 109.359 466.16 108.795 470.687 108.175C469.721 107.528 469.115 107.114 468.503 106.712C467.463 106.029 466.924 105.094 466.966 103.829H466.969Z" fill="#1D1D1B"/>
<path d="M276.507 81.585C271.133 75.4215 261.571 74.5005 254.743 78.92C247.278 83.7562 245.745 93.5092 248.71 100.433C251.469 106.873 256.711 109.664 263.486 109.933C264.715 109.909 265.895 109.828 267.089 109.59C272.106 108.575 275.909 105.864 278.328 101.389C280.254 97.8236 280.807 93.9784 280.205 89.9267C279.736 86.7714 278.591 83.9803 276.507 81.5885V81.585ZM269.424 102.712C269.039 104.327 268.437 105.882 267.323 107.17C265.251 109.573 262.544 109.468 260.685 106.911C259.522 105.314 258.889 103.479 258.409 101.592C257.618 98.4715 257.303 95.2952 257.415 92.6267C257.327 88.5714 257.607 85.1115 258.854 81.7916C259.34 80.4994 259.974 79.2947 261.025 78.3492C262.663 76.8784 264.645 76.8468 266.266 78.3352C267.705 79.6554 268.507 81.3924 268.997 83.2134C270.727 89.6675 270.979 96.1812 269.424 102.712Z" fill="#1D1D1B"/>
<path d="M363.042 77.4353C360.136 76.1255 357.125 75.8944 353.988 76.5073C348.697 77.5368 344.965 80.5275 342.749 85.3672C340.981 89.2264 340.669 93.3237 341.471 97.463C342.139 100.916 343.677 103.959 346.376 106.305C349.412 108.942 352.973 110.028 356.975 109.912C361.824 109.772 365.56 107.797 367.948 103.511C368.673 102.208 369.187 100.818 369.292 99.0214C368.126 99.9914 367.23 100.8 366.117 101.273C362.083 102.986 358.158 102.786 354.541 100.261C350.683 97.5681 349.296 93.5898 349.013 88.9042H369.299C369.299 88.1968 369.324 87.6365 369.296 87.0797C369.061 82.6672 367.181 79.3018 363.042 77.4388V77.4353ZM360.56 87.5174C358.505 87.8886 350.361 87.8151 349.034 87.4159C349.097 84.2886 349.765 81.361 351.992 78.9691C352.419 78.5104 352.938 78.1602 353.501 77.8625C355.949 76.5843 358.309 77.2987 359.555 79.7606C360.788 82.2014 360.781 84.8104 360.56 87.5174Z" fill="#1D1D1B"/>
<path d="M427.159 104.961C425.272 104.516 423.976 102.775 423.959 100.587C423.899 93.2571 423.903 85.924 423.889 78.5944C423.889 78.4368 423.969 78.2757 424.067 77.901H431.434C431.518 77.3442 431.62 77.008 431.245 76.5667C430.118 76.5667 428.868 76.6088 427.621 76.5562C426.389 76.5037 425.125 76.8049 423.801 76.3006V67.5037C422.296 68.9885 421.004 70.2597 419.715 71.5344C418.409 72.8301 416.942 73.9333 415.381 74.8893C413.872 75.8138 412.289 76.6193 410.451 77.6383C412.012 78.2022 413.304 77.6839 414.439 78.0936C414.722 78.7765 414.596 79.4138 414.596 80.0302C414.607 87.1882 414.575 94.3497 414.614 101.508C414.631 104.779 415.902 107.451 418.938 108.932C421.862 110.361 424.922 110.322 427.88 109.019C430.223 107.986 431.784 106.179 432.509 103.521C431.956 103.889 431.56 104.176 431.144 104.432C429.897 105.192 428.518 105.279 427.159 104.957V104.961Z" fill="#1D1D1B"/>
<path fill-rule="evenodd" clip-rule="evenodd" d="M88.1954 12.1167H119.137L166.387 60.7975H156.072C154.892 78.633 144.752 94.0171 130.11 102.492C122.435 106.936 113.524 109.478 104.018 109.478H88.1919C94.939 109.478 101.262 106.936 106.707 102.492C117.099 94.0171 124.298 78.633 125.134 60.7975H135.449L88.1954 12.1167ZM126.889 44.1877C126.889 48.3025 130.222 51.6328 134.336 51.6328C138.45 51.6328 141.78 48.3025 141.78 44.1877C141.78 40.0729 138.446 36.739 134.336 36.739C130.225 36.739 126.889 40.0729 126.889 44.1877ZM103.395 36.7389C107.509 36.7389 110.838 40.0728 110.838 44.1876C110.838 48.3024 107.509 51.6327 103.395 51.6327C99.2805 51.6327 95.9473 48.3024 95.9473 44.1876C95.9473 40.0728 99.2805 36.7389 103.395 36.7389Z" fill="#1F3C89"/>
<path fill-rule="evenodd" clip-rule="evenodd" d="M69.6801 19.1067C59.2882 27.5814 52.0895 42.9655 51.2527 60.801H40.9412L88.1952 109.482H57.2539L10 60.801H20.3149C21.4949 42.962 31.6347 27.5779 46.2773 19.1067C53.9522 14.6627 62.8631 12.1202 72.3692 12.1202H88.1952C81.4481 12.1202 75.1247 14.6627 69.6801 19.1067ZM42.0617 84.863C46.1757 84.863 49.5055 81.5326 49.5055 77.4178C49.5055 73.303 46.1722 69.9691 42.0617 69.9691C37.9511 69.9691 34.6143 73.303 34.6143 77.4178C34.6143 81.5326 37.9476 84.863 42.0617 84.863ZM72.9994 84.8629C68.8888 84.8629 65.5521 81.5325 65.5521 77.4177C65.5521 73.3029 68.8853 69.969 72.9994 69.969C77.1134 69.969 80.4432 73.3029 80.4432 77.4177C80.4432 81.5325 77.1099 84.8629 72.9994 84.8629Z" fill="#EB5D43"/>
</svg>
